# xmcd
#
# Track frame offsets:
#	150
#	16660
#	34130
#	45380
#	60102
#	73065
#	84937
#	104440
#	118427
#	132732
#	144290
#	156692
#
# Disc length: 2320 seconds
#
# Revision: 0
# Processed by: cddbd v1.5.2PL0 Copyright (c) Steve Scherf et al.
# Submitted via: EasyCDDAExtractor 11.1.0.1
#
DISCID=a3090e0c
DTITLE=Jesse Fuller - Jesse Fuller's Favorites
DYEAR=1963
DGENRE=Blues
TTITLE0=Red River Blues
TTITLE1=How Long Blues
TTITLE2=You Can't Keep A Good Man Down
TTITLE3=Key To The Highway
TTITLE4=Tickling The Strings
TTITLE5=Midnight Special
TTITLE6=Stranger Blues
TTITLE7=Fables Aren't Nothing But Doggone Lies
TTITLE8=Brownskin Gal I Got My Eyes On You
TTITLE9=Cincinnati Blues
TTITLE10=Hump In Your Back
TTITLE11=Trouble If I Don't Use My Head
EXTD=
EXTT0=
EXTT1=
EXTT2=
EXTT3=
EXTT4=
EXTT5=
EXTT6=
EXTT7=
EXTT8=
EXTT9=
EXTT10=
EXTT11=
PLAYORDER=
